<svg width="36" height="36" viewBox="0 0 36 36" fill="none" xmlns="http://www.w3.org/2000/svg">
<path d="M18 33.975L2.30051 10.2065C4.56356 8.32172 7.02226 6.80759 9.67661 5.66411C12.331 4.52064 15.1046 3.9489 17.9976 3.9489C20.8905 3.9489 23.6685 4.52064 26.3315 5.66411C28.9946 6.80759 31.4506 8.32172 33.6995 10.2065L18 33.975ZM18 28.6483L29.7619 10.9223C27.9761 9.80381 26.097 8.86061 24.1247 8.09269C22.1524 7.32474 20.111 6.94076 18.0007 6.94076C15.8807 6.94076 13.833 7.32311 11.8575 8.08781C9.88195 8.85249 8.01586 9.79731 6.25923 10.9223L18 28.6483ZM13.6839 14.9821C14.3015 14.9821 14.8174 14.7716 15.2315 14.3506C15.6456 13.9296 15.8527 13.4103 15.8527 12.7927C15.8527 12.1751 15.6457 11.6557 15.2318 11.2345C14.8179 10.8133 14.3021 10.6027 13.6845 10.6027C13.0669 10.6027 12.5475 10.8132 12.1263 11.2342C11.7051 11.6552 11.4945 12.1745 11.4945 12.7921C11.4945 13.4097 11.705 13.9291 12.1261 14.3503C12.5471 14.7715 13.0664 14.9821 13.6839 14.9821ZM17.9997 22.7478C18.6173 22.7478 19.1367 22.5409 19.5579 22.1269C19.9791 21.713 20.1897 21.1972 20.1897 20.5796C20.1897 19.962 19.9792 19.4427 19.5582 19.0215C19.1372 18.6003 18.6179 18.3897 18.0003 18.3897C17.3827 18.3897 16.8633 18.6002 16.4421 19.0212C16.0209 19.4422 15.8103 19.9615 15.8103 20.5791C15.8103 21.1966 16.0208 21.7125 16.4418 22.1266C16.8628 22.5408 17.3821 22.7478 17.9997 22.7478Z" fill="#2F2F2F"/>
</svg>
